<?xml version="1.0" encoding="UTF-8" standalone="no"?>
<!-- Created with Inkscape (http://www.inkscape.org/) -->

<svg
   xmlns:dc="http://purl.org/dc/elements/1.1/"
   xmlns:cc="http://creativecommons.org/ns#"
   xmlns:rdf="http://www.w3.org/1999/02/22-rdf-syntax-ns#"
   xmlns:svg="http://www.w3.org/2000/svg"
   xmlns="http://www.w3.org/2000/svg"
   xmlns:sodipodi="http://sodipodi.sourceforge.net/DTD/sodipodi-0.dtd"
   xmlns:inkscape="http://www.inkscape.org/namespaces/inkscape"
   inkscape:export-ydpi="75.000000"
   inkscape:export-xdpi="75.000000"
   inkscape:export-filename="/home/jalmer/multimedia/optischer_resonator.png"
   sodipodi:docname="optischer_resonator.svg"
   inkscape:version="0.47pre4 r22446"
   sodipodi:version="0.32"
   id="svg2"
   height="661.57538"
   width="1005.8792"
   version="1.1">
  <defs
     id="defs3">
    <inkscape:perspective
       sodipodi:type="inkscape:persp3d"
       inkscape:vp_x="0 : 372.04724 : 1"
       inkscape:vp_y="0 : 1000 : 0"
       inkscape:vp_z="1052.3622 : 372.04724 : 1"
       inkscape:persp3d-origin="526.18109 : 248.03149 : 1"
       id="perspective58" />
    <marker
       inkscape:stockid="Arrow2Mend"
       orient="auto"
       refY="0"
       refX="0"
       id="Arrow2Mend"
       style="overflow:visible">
      <path
         sodipodi:nodetypes="cccc"
         id="path5742"
         style="font-size:12px;fill-rule:evenodd;stroke-width:0.625;stroke-linejoin:round"
         d="M 8.7185878,4.0337352 -2.2072895,0.01601326 8.7185884,-4.0017078 c -1.7454984,2.3720609 -1.7354408,5.6174519 -6e-7,8.035443 z"
         transform="matrix(-0.6,0,0,-0.6,3,0)" />
    </marker>
  </defs>
  <sodipodi:namedview
     inkscape:window-y="25"
     inkscape:window-x="0"
     inkscape:window-height="726"
     inkscape:window-width="1280"
     inkscape:current-layer="layer1"
     inkscape:document-units="px"
     inkscape:cy="387.62239"
     inkscape:cx="27.485814"
     inkscape:zoom="0.24850127"
     inkscape:pageshadow="2"
     inkscape:pageopacity="0.0"
     borderopacity="1.0"
     bordercolor="#666666"
     pagecolor="#ffffff"
     id="base"
     showgrid="false"
     inkscape:window-maximized="1" />
  <metadata
     id="metadata4">
    <rdf:RDF>
      <cc:Work
         rdf:about="">
        <dc:format>image/svg+xml</dc:format>
        <dc:type
           rdf:resource="http://purl.org/dc/dcmitype/StillImage" />
      </cc:Work>
    </rdf:RDF>
  </metadata>
  <g
     id="layer1"
     inkscape:groupmode="layer"
     inkscape:label="Layer 1"
     transform="translate(-2.8454857,-79.673599)">
    <rect
       y="79.673599"
       x="2.8454857"
       height="661.57538"
       width="1005.8792"
       id="rect5791"
       style="fill:#ffffff;fill-opacity:1;fill-rule:evenodd;stroke:#ff1616;stroke-width:0;stroke-linecap:round;stroke-miterlimit:4;stroke-opacity:1;stroke-dashoffset:0" />
    <path
       id="path5787"
       d="m 646.37931,267.47565 c -62.60069,0 -64.02343,0 -64.02343,0"
       style="fill:none;stroke:#000000;stroke-width:4;stroke-linecap:butt;stroke-linejoin:miter;stroke-miterlimit:4;stroke-opacity:1;marker-end:url(#Arrow2Mend)" />
    <path
       id="path5789"
       d="m 574.35588,327.47565 c 62.60069,0 64.02343,0 64.02343,0"
       style="fill:none;stroke:#000000;stroke-width:4;stroke-linecap:butt;stroke-linejoin:miter;stroke-miterlimit:4;stroke-opacity:1;marker-end:url(#Arrow2Mend)" />
    <path
       id="path1291"
       d="m 134.125,162.1875 c -30.23613,0 -54.78126,63.09371 -54.78125,140.84375 0,77.53313 24.41132,140.49301 54.53125,140.84375 -23.04907,-19.02233 -39.75,-74.5637 -39.75,-140.125 1e-5,-65.79584 16.823,-121.5163 40,-140.34375 l 0,-1.21875 z"
       style="fill:#3169ff;fill-opacity:0.99312714;fill-rule:evenodd;stroke:#000000;stroke-width:3;stroke-linecap:round;stroke-miterlimit:4;stroke-opacity:1;stroke-dashoffset:0" />
    <path
       id="path2081"
       d="m 619.34375,443.875 c 30.23613,0 54.78126,-63.09371 54.78125,-140.84375 0,-77.53313 -24.41132,-140.49301 -54.53125,-140.84375 23.04907,19.02233 39.75,74.5637 39.75,140.125 -10e-6,65.79584 -16.823,121.5163 -40,140.34375 l 0,1.21875 z"
       style="fill:#3169ff;fill-opacity:0.99312714;fill-rule:evenodd;stroke:#000000;stroke-width:3;stroke-linecap:round;stroke-miterlimit:4;stroke-opacity:1;stroke-dashoffset:0" />
    <path
       style="fill:#e5ff80;fill-opacity:0.99312714;fill-rule:evenodd;stroke:#000000;stroke-width:3.47971463;stroke-linecap:round;stroke-miterlimit:4;stroke-opacity:1;stroke-dashoffset:0"
       d="m 247.59014,165.96816 c -22.12899,0 -39.94403,24.03519 -39.94403,53.89057 l 0,166.34503 c 0,29.85538 17.81504,53.89057 39.94403,53.89057 l 262.50722,0 c 22.12899,0 39.94403,-24.03519 39.94403,-53.89057 l 0,-166.34503 c 0,-29.85538 -17.81504,-53.89057 -39.94403,-53.89057 l -262.50722,0 z m 12.95061,13.55684 236.606,0 c 19.9444,0 35.98084,21.6356 35.98084,48.54362 l 0,149.92525 c 0,26.90803 -16.03644,48.54362 -35.98084,48.54362 l -236.606,0 c -19.9444,0 -36.01205,-21.6356 -36.01205,-48.54362 l 0,-149.92525 c 0,-26.90802 16.06765,-48.54362 36.01205,-48.54362 z"
       id="rect2083" />
    <g
       transform="matrix(0.730196,0,0,0.730196,1.74927,180.4359)"
       style="fill:#f0e800;fill-opacity:1"
       id="g2847">
      <rect
         ry="54.779823"
         rx="0"
         y="512.18738"
         x="332.92181"
         height="155.07896"
         width="62.600681"
         id="rect2843"
         style="fill-rule:evenodd;stroke:#000000;stroke-width:3;stroke-linecap:round;stroke-miterlimit:4;stroke-opacity:1;stroke-dashoffset:0" />
      <path
         transform="matrix(0.866025,0.5,-0.5,0.866025,324.5639,-57.4244)"
         d="m 371.33588,446.74124 -46.9924,27.5925 -55.44509,31.54981 -0.39961,-54.49286 0.39961,-63.79176 47.39201,26.90036 55.04548,32.24195 z"
         inkscape:randomized="0"
         inkscape:rounded="0"
         inkscape:flatsided="false"
         sodipodi:arg2="0.91341212"
         sodipodi:arg1="0"
         sodipodi:r2="34.856915"
         sodipodi:r1="68.291656"
         sodipodi:cy="446.74124"
         sodipodi:cx="303.04422"
         sodipodi:sides="3"
         id="path2845"
         style="fill-rule:evenodd;stroke:#000000;stroke-width:3;stroke-linecap:round;stroke-miterlimit:4;stroke-opacity:1;stroke-dashoffset:0"
         sodipodi:type="star" />
    </g>
    <g
       transform="matrix(0.730196,0,0,0.730196,121.7493,180.4359)"
       style="fill:#f0e800;fill-opacity:1"
       id="g3609">
      <rect
         ry="54.779823"
         rx="0"
         y="512.18738"
         x="332.92181"
         height="155.07896"
         width="62.600681"
         id="rect3611"
         style="fill-rule:evenodd;stroke:#000000;stroke-width:3;stroke-linecap:round;stroke-miterlimit:4;stroke-opacity:1;stroke-dashoffset:0" />
      <path
         transform="matrix(0.866025,0.5,-0.5,0.866025,324.5639,-57.4244)"
         d="m 371.33588,446.74124 -46.9924,27.5925 -55.44509,31.54981 -0.39961,-54.49286 0.39961,-63.79176 47.39201,26.90036 55.04548,32.24195 z"
         inkscape:randomized="0"
         inkscape:rounded="0"
         inkscape:flatsided="false"
         sodipodi:arg2="0.91341212"
         sodipodi:arg1="0"
         sodipodi:r2="34.856915"
         sodipodi:r1="68.291656"
         sodipodi:cy="446.74124"
         sodipodi:cx="303.04422"
         sodipodi:sides="3"
         id="path3613"
         style="fill-rule:evenodd;stroke:#000000;stroke-width:3;stroke-linecap:round;stroke-miterlimit:4;stroke-opacity:1;stroke-dashoffset:0"
         sodipodi:type="star" />
    </g>
    <g
       transform="matrix(0.730196,0,0,0.730196,241.7493,180.4359)"
       style="fill:#f0e800;fill-opacity:1"
       id="g3615">
      <rect
         ry="54.779823"
         rx="0"
         y="512.18738"
         x="332.92181"
         height="155.07896"
         width="62.600681"
         id="rect3617"
         style="fill-rule:evenodd;stroke:#000000;stroke-width:3;stroke-linecap:round;stroke-miterlimit:4;stroke-opacity:1;stroke-dashoffset:0" />
      <path
         transform="matrix(0.866025,0.5,-0.5,0.866025,324.5639,-57.4244)"
         d="m 371.33588,446.74124 -46.9924,27.5925 -55.44509,31.54981 -0.39961,-54.49286 0.39961,-63.79176 47.39201,26.90036 55.04548,32.24195 z"
         inkscape:randomized="0"
         inkscape:rounded="0"
         inkscape:flatsided="false"
         sodipodi:arg2="0.91341212"
         sodipodi:arg1="0"
         sodipodi:r2="34.856915"
         sodipodi:r1="68.291656"
         sodipodi:cy="446.74124"
         sodipodi:cx="303.04422"
         sodipodi:sides="3"
         id="path3619"
         style="fill-rule:evenodd;stroke:#000000;stroke-width:3;stroke-linecap:round;stroke-miterlimit:4;stroke-opacity:1;stroke-dashoffset:0"
         sodipodi:type="star" />
    </g>
    <g
       transform="matrix(0.511803,0,0,0.243857,677.4436,239.8434)"
       id="g4011"
       style="color:#ff0000;fill:#ffffff;fill-opacity:1;stroke:#ff1616;stroke-width:16.98369789;stroke-miterlimit:4;stroke-opacity:1">
      <path
         id="path4013"
         d="m 57,114 5,38 5,42 6,43 5,42 5,41 5,37 6,32 5,26 5,18 5,9 6,1 5,-7 5,-16 5,-24 5,-30 6,-36 5,-40 5,-43 5,-43 6,-42 5,-39 5,-35 5,-30 6,-22 5,-14 5,-6 5,3 6,11 5,20 5,27 5,33 5,38 6,41 5,43 5,43 5,41 6,38 5,32 5,26 5,19 6,11 5,2 5,-7 5,-15 5,-23 6,-30 5,-35 5,-40 5,-42 6,-44 5,-42 5,-40 5,-35 6,-30 5,-23 5,-15 5,-7 5,2 6,11 5,19 5,26 5,32 6,38 5,41 5,43 5,43 6,41 5,38 5,33 5,27 5,20 6,11 5,3 5,-6 5,-14 6,-22 5,-30 5,-35 5,-39 6,-42 5,-43 5,-43 5,-40 6,-36 5,-30 5,-24 5,-16 5,-7 6,1 5,9 5,18 5,26 6,32 5,37 5,41 5,42 6,43 5,42 5,38" />
    </g>
    <path
       transform="translate(-12.80469,12.80469)"
       d="m 998.76543,297.35324 -4.2386,2.51558 -4.29785,2.41295 -0.0593,-4.92853 0.0593,-4.92852 4.29785,2.41294 4.2386,2.51558 z"
       inkscape:randomized="0"
       inkscape:rounded="0"
       inkscape:flatsided="false"
       sodipodi:arg2="1.0471976"
       sodipodi:arg1="0"
       sodipodi:r2="2.9047427"
       sodipodi:r1="5.6909714"
       sodipodi:cy="297.35324"
       sodipodi:cx="993.07446"
       sodipodi:sides="3"
       id="path4790"
       style="fill:#ffffff;fill-opacity:1;fill-rule:evenodd;stroke:#ff1616;stroke-width:16.98369789;stroke-linecap:round;stroke-miterlimit:4;stroke-opacity:1;stroke-dashoffset:0"
       sodipodi:type="star" />
    <text
       sodipodi:linespacing="100%"
       id="text4792"
       y="719.68042"
       x="204.00604"
       style="font-size:48px;font-style:normal;font-variant:normal;font-weight:bold;font-stretch:normal;line-height:100%;writing-mode:lr-tb;text-anchor:start;fill:#000000;fill-opacity:1;stroke:none;font-family:Bitstream Vera Sans"
       xml:space="preserve"><tspan
         y="719.68042"
         x="204.00604"
         id="tspan4794"
         sodipodi:role="line">Pumpleistung</tspan></text>
    <text
       sodipodi:linespacing="100%"
       id="text4796"
       y="410.45984"
       x="380.63458"
       style="font-size:29.61654854px;font-style:normal;font-variant:normal;font-weight:bold;font-stretch:normal;line-height:100%;writing-mode:lr-tb;text-anchor:middle;fill:#000000;fill-opacity:1;stroke:none;font-family:Bitstream Vera Sans"
       xml:space="preserve"><tspan
         id="tspan4804"
         sodipodi:role="line"
         y="410.45984"
         x="380.63458">aktives Medium</tspan></text>
    <text
       sodipodi:linespacing="100%"
       id="text4806"
       y="136.75333"
       x="12.5425"
       style="font-size:48px;font-style:normal;font-variant:normal;font-weight:bold;font-stretch:normal;line-height:100%;writing-mode:lr-tb;text-anchor:start;fill:#000000;fill-opacity:1;stroke:none;font-family:Bitstream Vera Sans"
       xml:space="preserve"><tspan
         id="tspan4810"
         sodipodi:role="line"
         y="136.75333"
         x="12.5425">Endspiegel</tspan><tspan
         id="tspan4812"
         sodipodi:role="line"
         y="184.75333"
         x="12.5425" /></text>
    <text
       sodipodi:linespacing="100%"
       id="text4814"
       y="136.75333"
       x="532.54248"
       style="font-size:48px;font-style:normal;font-variant:normal;font-weight:bold;font-stretch:normal;line-height:100%;writing-mode:lr-tb;text-anchor:start;fill:#000000;fill-opacity:1;stroke:none;font-family:Bitstream Vera Sans"
       xml:space="preserve"><tspan
         id="tspan4816"
         sodipodi:role="line"
         y="136.75333"
         x="532.54248">Auskoppelspiegel</tspan><tspan
         id="tspan4818"
         sodipodi:role="line"
         y="184.75333"
         x="532.54248" /></text>
    <text
       sodipodi:linespacing="100%"
       id="text4820"
       y="482.75333"
       x="12.5425"
       style="font-size:28px;font-style:normal;font-variant:normal;font-weight:bold;font-stretch:normal;line-height:100%;writing-mode:lr-tb;text-anchor:start;fill:#000000;fill-opacity:1;stroke:none;font-family:Bitstream Vera Sans"
       xml:space="preserve"><tspan
         id="tspan4828"
         sodipodi:role="line"
         y="482.75333"
         x="12.5425">Reflektivität</tspan><tspan
         id="tspan4830"
         sodipodi:role="line"
         y="510.75333"
         x="12.5425">R=100%</tspan></text>
    <text
       sodipodi:linespacing="100%"
       id="text4832"
       y="482.75333"
       x="552.54248"
       style="font-size:28px;font-style:normal;font-variant:normal;font-weight:bold;font-stretch:normal;line-height:100%;writing-mode:lr-tb;text-anchor:start;fill:#000000;fill-opacity:1;stroke:none;font-family:Bitstream Vera Sans"
       xml:space="preserve"><tspan
         id="tspan4838"
         sodipodi:role="line"
         y="482.75333"
         x="552.54248">Reflektivität</tspan><tspan
         id="tspan4840"
         sodipodi:role="line"
         y="510.75333"
         x="552.54248">R&lt;100%</tspan></text>
    <text
       sodipodi:linespacing="100%"
       id="text4842"
       y="207.68042"
       x="844.00604"
       style="font-size:28px;font-style:normal;font-variant:normal;font-weight:bold;font-stretch:normal;line-height:100%;writing-mode:lr-tb;text-anchor:middle;fill:#000000;fill-opacity:1;stroke:none;font-family:Bitstream Vera Sans"
       xml:space="preserve"><tspan
         id="tspan4858"
         sodipodi:role="line"
         y="207.68042"
         x="848.87323">ausgekoppeltes </tspan><tspan
         id="tspan4860"
         sodipodi:role="line"
         y="235.68042"
         x="844.00604">Laserlicht</tspan><tspan
         id="tspan4862"
         sodipodi:role="line"
         y="263.68042"
         x="844.00604" /></text>
    <g
       transform="matrix(0.195126,0,0,0.09297109,73.801096,307.5151)"
       id="g4868"
       style="color:#ff0000;fill:#ffffff;fill-opacity:1;stroke:#ff1616;stroke-width:16.98369789;stroke-miterlimit:4;stroke-opacity:1" />
    <path
       id="path4872"
       d="m 186.37931,267.47565 c -62.60069,0 -64.02343,0 -64.02343,0"
       style="fill:none;stroke:#000000;stroke-width:4;stroke-linecap:butt;stroke-linejoin:miter;stroke-miterlimit:4;stroke-opacity:1;stroke-dasharray:none;marker-end:url(#Arrow2Mend)" />
    <path
       id="path5777"
       d="m 118.35588,327.47565 c 62.60069,0 64.02343,0 64.02343,0"
       style="fill:none;stroke:#000000;stroke-width:4;stroke-linecap:butt;stroke-linejoin:miter;stroke-miterlimit:4;stroke-opacity:1;marker-end:url(#Arrow2Mend)" />
    <g
       id="g3664"
       transform="translate(0,-29.877599)">
      <g
         style="color:#ff0000;fill:none;stroke:#ff1616;stroke-width:16.98369789;stroke-miterlimit:4;stroke-opacity:1"
         id="g5783"
         transform="matrix(0.195126,0,0,0.09297109,550.874,307.5151)">
        <path
           style="fill:none"
           d="m 57,114 5,38 5,42 6,43 5,42 5,41 5,37 6,32 5,26 5,18 5,9 6,1 5,-7 5,-16 5,-24 5,-30 6,-36 5,-40 5,-43 5,-43 6,-42 5,-39 5,-35 5,-30 6,-22 5,-14 5,-6 5,3 6,11 5,20 5,27 5,33 5,38 6,41 5,43 5,43 5,41 6,38 5,32 5,26 5,19 6,11 5,2 5,-7 5,-15 5,-23 6,-30 5,-35 5,-40 5,-42 6,-44 5,-42 5,-40 5,-35 6,-30 5,-23 5,-15 5,-7 5,2 6,11 5,19 5,26 5,32 6,38 5,41 5,43 5,43 6,41 5,38 5,33 5,27 5,20 6,11 5,3 5,-6 5,-14 6,-22 5,-30 5,-35 5,-39 6,-42 5,-43 5,-43 5,-40 6,-36 5,-30 5,-24 5,-16 5,-7 6,1 5,9 5,18 5,26 6,32 5,37 5,41 5,42 6,43 5,42 5,38"
           id="path5785" />
      </g>
      <path
         style="color:#ff0000;fill:none;stroke:#ff1616;stroke-width:16.98369789;stroke-miterlimit:4;stroke-opacity:1"
         sodipodi:nodetypes="cccccccccccccccccccccccccccccccccccccccccccccccccccccccccccccccccccccccccccccccc"
         d="m 162,162 5,-39 5,-35 5,-30 6,-22 5,-14 5,-6 5,3 6,11 5,20 5,27 5,33 5,38 6,41 5,43 5,43 5,41 6,38 5,32 5,26 5,19 6,11 5,2 5,-7 5,-15 5,-23 6,-30 5,-35 5,-40 5,-42 6,-44 5,-42 5,-40 5,-35 6,-30 5,-23 5,-15 5,-7 5,2 6,11 5,19 5,26 5,32 6,38 5,41 5,43 5,43 6,41 5,38 5,33 5,27 5,20 6,11 5,3 5,-6 5,-14 6,-22 5,-30 5,-35 5,-39 6,-42 5,-43 5,-43 5,-40 6,-36 5,-30 5,-24 5,-16 5,-7 6,1 5,9 5,18 5,26 6,32 5,37 5,41 5,42 6,43 5,42 5,38"
         id="path4870"
         transform="matrix(0.195126,0,0,0.09297109,73.801096,307.5151)" />
      <g
         transform="matrix(0.195126,0,0,0.09297109,455.45126,307.5151)"
         id="g2869"
         style="color:#ff0000;fill:none;stroke:#ff1616;stroke-width:16.98369789;stroke-miterlimit:4;stroke-opacity:1">
        <path
           style="fill:none"
           id="path2871"
           d="m 57,114 5,38 5,42 6,43 5,42 5,41 5,37 6,32 5,26 5,18 5,9 6,1 5,-7 5,-16 5,-24 5,-30 6,-36 5,-40 5,-43 5,-43 6,-42 5,-39 5,-35 5,-30 6,-22 5,-14 5,-6 5,3 6,11 5,20 5,27 5,33 5,38 6,41 5,43 5,43 5,41 6,38 5,32 5,26 5,19 6,11 5,2 5,-7 5,-15 5,-23 6,-30 5,-35 5,-40 5,-42 6,-44 5,-42 5,-40 5,-35 6,-30 5,-23 5,-15 5,-7 5,2 6,11 5,19 5,26 5,32 6,38 5,41 5,43 5,43 6,41 5,38 5,33 5,27 5,20 6,11 5,3 5,-6 5,-14 6,-22 5,-30 5,-35 5,-39 6,-42 5,-43 5,-43 5,-40 6,-36 5,-30 5,-24 5,-16 5,-7 6,1 5,9 5,18 5,26 6,32 5,37 5,41 5,42 6,43 5,42 5,38" />
      </g>
      <g
         style="color:#ff0000;fill:none;stroke:#ff1616;stroke-width:16.98369789;stroke-miterlimit:4;stroke-opacity:1"
         id="g2873"
         transform="matrix(0.195126,0,0,0.09297109,360.874,307.5151)">
        <path
           style="fill:none"
           d="m 53.354297,114 5,38 5,42 6,43 5,42 5,41 5,37 6,32 5,26 5.000003,18 5,9 6,1 5,-7 5,-16 5,-24 5,-30 6,-36 5,-40 5,-43 5,-43 6,-42 5,-39 5,-35 5,-30 6,-22 5,-14 5,-6 5,3 6,11 5,20 5,27 5,33 5,38 6,41 5,43 5,43 5,41 6,38 5,32 5,26 5,19 6,11 5,2 5,-7 5,-15 5,-23 6,-30 5,-35 5,-40 5,-42 6,-44 5,-42 5,-40 5,-35 6,-30 5,-23 5,-15 5,-7 5,2 6,11 5,19 5,26 5,32 6,38 5,41 5,43 5,43 6,41 5,38 5,33 5,27 5,20 6,11 5,3 5,-6 5,-14 6,-22 5,-30 5,-35 5,-39 6,-42 5,-43 5,-43 5,-40 6,-36 5,-30 5,-24 5,-16 5,-7 6,1 5,9 5,18 5,26 6,32 5,37 5,41 5,42 6,43 5,42 5,38"
           id="path2875" />
      </g>
      <g
         transform="matrix(0.195126,0,0,0.09297109,264.874,307.5151)"
         id="g2877"
         style="color:#ff0000;fill:none;stroke:#ff1616;stroke-width:16.98369789;stroke-miterlimit:4;stroke-opacity:1">
        <path
           style="fill:none"
           id="path2879"
           d="m 57,114 5,38 5,42 6,43 5,42 5,41 5,37 6,32 5,26 5,18 5,9 6,1 5,-7 5,-16 5,-24 5,-30 6,-36 5,-40 5,-43 5,-43 6,-42 5,-39 5,-35 5,-30 6,-22 5,-14 5,-6 5,3 6,11 5,20 5,27 5,33 5,38 6,41 5,43 5,43 5,41 6,38 5,32 5,26 5,19 6,11 5,2 5,-7 5,-15 5,-23 6,-30 5,-35 5,-40 5,-42 6,-44 5,-42 5,-40 5,-35 6,-30 5,-23 5,-15 5,-7 5,2 6,11 5,19 5,26 5,32 6,38 5,41 5,43 5,43 6,41 5,38 5,33 5,27 5,20 6,11 5,3 5,-6 5,-14 6,-22 5,-30 5,-35 5,-39 6,-42 5,-43 5,-43 5,-40 6,-36 5,-30 5,-24 5,-16 5,-7 6,1 5,9 5,18 5,26 6,32 5,37 5,41 5,42 6,43 5,42 5,38" />
      </g>
      <g
         style="color:#ff0000;fill:none;stroke:#ff1616;stroke-width:16.98369789;stroke-miterlimit:4;stroke-opacity:1"
         id="g2881"
         transform="matrix(0.195126,0,0,0.09297109,169.37239,307.5151)">
        <path
           style="fill:none"
           d="m 57,114 5,38 5,42 6,43 5,42 5,41 5,37 6,32 5,26 5,18 5,9 6,1 5,-7 5,-16 5,-24 5,-30 6,-36 5,-40 5,-43 5,-43 6,-42 5,-39 5,-35 5,-30 6,-22 5,-14 5,-6 5,3 6,11 5,20 5,27 5,33 5,38 6,41 5,43 5,43 5,41 6,38 5,32 5,26 5,19 6,11 5,2 5,-7 5,-15 5,-23 6,-30 5,-35 5,-40 5,-42 6,-44 5,-42 5,-40 5,-35 6,-30 5,-23 5,-15 5,-7 5,2 6,11 5,19 5,26 5,32 6,38 5,41 5,43 5,43 6,41 5,38 5,33 5,27 5,20 6,11 5,3 5,-6 5,-14 6,-22 5,-30 5,-35 5,-39 6,-42 5,-43 5,-43 5,-40 6,-36 5,-30 5,-24 5,-16 5,-7 6,1 5,9 5,18 5,26 6,32 5,37 5,41 5,42 6,43 5,42 5,38"
           id="path2883" />
      </g>
    </g>
    <g
       transform="translate(0,-57.877599)"
       id="g3677">
      <g
         transform="matrix(0.195126,0,0,0.09297109,550.874,307.5151)"
         id="g3679"
         style="color:#ff0000;fill:none;stroke:#ff1616;stroke-width:16.98369789;stroke-miterlimit:4;stroke-opacity:1">
        <path
           id="path3681"
           d="m 57,114 5,38 5,42 6,43 5,42 5,41 5,37 6,32 5,26 5,18 5,9 6,1 5,-7 5,-16 5,-24 5,-30 6,-36 5,-40 5,-43 5,-43 6,-42 5,-39 5,-35 5,-30 6,-22 5,-14 5,-6 5,3 6,11 5,20 5,27 5,33 5,38 6,41 5,43 5,43 5,41 6,38 5,32 5,26 5,19 6,11 5,2 5,-7 5,-15 5,-23 6,-30 5,-35 5,-40 5,-42 6,-44 5,-42 5,-40 5,-35 6,-30 5,-23 5,-15 5,-7 5,2 6,11 5,19 5,26 5,32 6,38 5,41 5,43 5,43 6,41 5,38 5,33 5,27 5,20 6,11 5,3 5,-6 5,-14 6,-22 5,-30 5,-35 5,-39 6,-42 5,-43 5,-43 5,-40 6,-36 5,-30 5,-24 5,-16 5,-7 6,1 5,9 5,18 5,26 6,32 5,37 5,41 5,42 6,43 5,42 5,38"
           style="fill:none" />
      </g>
      <path
         transform="matrix(0.195126,0,0,0.09297109,73.801096,307.5151)"
         id="path3683"
         d="m 162,162 5,-39 5,-35 5,-30 6,-22 5,-14 5,-6 5,3 6,11 5,20 5,27 5,33 5,38 6,41 5,43 5,43 5,41 6,38 5,32 5,26 5,19 6,11 5,2 5,-7 5,-15 5,-23 6,-30 5,-35 5,-40 5,-42 6,-44 5,-42 5,-40 5,-35 6,-30 5,-23 5,-15 5,-7 5,2 6,11 5,19 5,26 5,32 6,38 5,41 5,43 5,43 6,41 5,38 5,33 5,27 5,20 6,11 5,3 5,-6 5,-14 6,-22 5,-30 5,-35 5,-39 6,-42 5,-43 5,-43 5,-40 6,-36 5,-30 5,-24 5,-16 5,-7 6,1 5,9 5,18 5,26 6,32 5,37 5,41 5,42 6,43 5,42 5,38"
         sodipodi:nodetypes="cccccccccccccccccccccccccccccccccccccccccccccccccccccccccccccccccccccccccccccccc"
         style="color:#ff0000;fill:none;stroke:#ff1616;stroke-width:16.98369789;stroke-miterlimit:4;stroke-opacity:1" />
      <g
         style="color:#ff0000;fill:none;stroke:#ff1616;stroke-width:16.98369789;stroke-miterlimit:4;stroke-opacity:1"
         id="g3685"
         transform="matrix(0.195126,0,0,0.09297109,455.45126,307.5151)">
        <path
           d="m 57,114 5,38 5,42 6,43 5,42 5,41 5,37 6,32 5,26 5,18 5,9 6,1 5,-7 5,-16 5,-24 5,-30 6,-36 5,-40 5,-43 5,-43 6,-42 5,-39 5,-35 5,-30 6,-22 5,-14 5,-6 5,3 6,11 5,20 5,27 5,33 5,38 6,41 5,43 5,43 5,41 6,38 5,32 5,26 5,19 6,11 5,2 5,-7 5,-15 5,-23 6,-30 5,-35 5,-40 5,-42 6,-44 5,-42 5,-40 5,-35 6,-30 5,-23 5,-15 5,-7 5,2 6,11 5,19 5,26 5,32 6,38 5,41 5,43 5,43 6,41 5,38 5,33 5,27 5,20 6,11 5,3 5,-6 5,-14 6,-22 5,-30 5,-35 5,-39 6,-42 5,-43 5,-43 5,-40 6,-36 5,-30 5,-24 5,-16 5,-7 6,1 5,9 5,18 5,26 6,32 5,37 5,41 5,42 6,43 5,42 5,38"
           id="path3687"
           style="fill:none" />
      </g>
      <g
         transform="matrix(0.195126,0,0,0.09297109,360.874,307.5151)"
         id="g3689"
         style="color:#ff0000;fill:none;stroke:#ff1616;stroke-width:16.98369789;stroke-miterlimit:4;stroke-opacity:1">
        <path
           id="path3691"
           d="m 53.354297,114 5,38 5,42 6,43 5,42 5,41 5,37 6,32 5,26 5.000003,18 5,9 6,1 5,-7 5,-16 5,-24 5,-30 6,-36 5,-40 5,-43 5,-43 6,-42 5,-39 5,-35 5,-30 6,-22 5,-14 5,-6 5,3 6,11 5,20 5,27 5,33 5,38 6,41 5,43 5,43 5,41 6,38 5,32 5,26 5,19 6,11 5,2 5,-7 5,-15 5,-23 6,-30 5,-35 5,-40 5,-42 6,-44 5,-42 5,-40 5,-35 6,-30 5,-23 5,-15 5,-7 5,2 6,11 5,19 5,26 5,32 6,38 5,41 5,43 5,43 6,41 5,38 5,33 5,27 5,20 6,11 5,3 5,-6 5,-14 6,-22 5,-30 5,-35 5,-39 6,-42 5,-43 5,-43 5,-40 6,-36 5,-30 5,-24 5,-16 5,-7 6,1 5,9 5,18 5,26 6,32 5,37 5,41 5,42 6,43 5,42 5,38"
           style="fill:none" />
      </g>
      <g
         style="color:#ff0000;fill:none;stroke:#ff1616;stroke-width:16.98369789;stroke-miterlimit:4;stroke-opacity:1"
         id="g3693"
         transform="matrix(0.195126,0,0,0.09297109,264.874,307.5151)">
        <path
           d="m 57,114 5,38 5,42 6,43 5,42 5,41 5,37 6,32 5,26 5,18 5,9 6,1 5,-7 5,-16 5,-24 5,-30 6,-36 5,-40 5,-43 5,-43 6,-42 5,-39 5,-35 5,-30 6,-22 5,-14 5,-6 5,3 6,11 5,20 5,27 5,33 5,38 6,41 5,43 5,43 5,41 6,38 5,32 5,26 5,19 6,11 5,2 5,-7 5,-15 5,-23 6,-30 5,-35 5,-40 5,-42 6,-44 5,-42 5,-40 5,-35 6,-30 5,-23 5,-15 5,-7 5,2 6,11 5,19 5,26 5,32 6,38 5,41 5,43 5,43 6,41 5,38 5,33 5,27 5,20 6,11 5,3 5,-6 5,-14 6,-22 5,-30 5,-35 5,-39 6,-42 5,-43 5,-43 5,-40 6,-36 5,-30 5,-24 5,-16 5,-7 6,1 5,9 5,18 5,26 6,32 5,37 5,41 5,42 6,43 5,42 5,38"
           id="path3695"
           style="fill:none" />
      </g>
      <g
         transform="matrix(0.195126,0,0,0.09297109,169.37239,307.5151)"
         id="g3697"
         style="color:#ff0000;fill:none;stroke:#ff1616;stroke-width:16.98369789;stroke-miterlimit:4;stroke-opacity:1">
        <path
           id="path3699"
           d="m 57,114 5,38 5,42 6,43 5,42 5,41 5,37 6,32 5,26 5,18 5,9 6,1 5,-7 5,-16 5,-24 5,-30 6,-36 5,-40 5,-43 5,-43 6,-42 5,-39 5,-35 5,-30 6,-22 5,-14 5,-6 5,3 6,11 5,20 5,27 5,33 5,38 6,41 5,43 5,43 5,41 6,38 5,32 5,26 5,19 6,11 5,2 5,-7 5,-15 5,-23 6,-30 5,-35 5,-40 5,-42 6,-44 5,-42 5,-40 5,-35 6,-30 5,-23 5,-15 5,-7 5,2 6,11 5,19 5,26 5,32 6,38 5,41 5,43 5,43 6,41 5,38 5,33 5,27 5,20 6,11 5,3 5,-6 5,-14 6,-22 5,-30 5,-35 5,-39 6,-42 5,-43 5,-43 5,-40 6,-36 5,-30 5,-24 5,-16 5,-7 6,1 5,9 5,18 5,26 6,32 5,37 5,41 5,42 6,43 5,42 5,38"
           style="fill:none" />
      </g>
    </g>
    <g
       id="g3701"
       transform="translate(0,2.122401)">
      <g
         style="color:#ff0000;fill:none;stroke:#ff1616;stroke-width:16.98369789;stroke-miterlimit:4;stroke-opacity:1"
         id="g3703"
         transform="matrix(0.195126,0,0,0.09297109,550.874,307.5151)">
        <path
           style="fill:none"
           d="m 57,114 5,38 5,42 6,43 5,42 5,41 5,37 6,32 5,26 5,18 5,9 6,1 5,-7 5,-16 5,-24 5,-30 6,-36 5,-40 5,-43 5,-43 6,-42 5,-39 5,-35 5,-30 6,-22 5,-14 5,-6 5,3 6,11 5,20 5,27 5,33 5,38 6,41 5,43 5,43 5,41 6,38 5,32 5,26 5,19 6,11 5,2 5,-7 5,-15 5,-23 6,-30 5,-35 5,-40 5,-42 6,-44 5,-42 5,-40 5,-35 6,-30 5,-23 5,-15 5,-7 5,2 6,11 5,19 5,26 5,32 6,38 5,41 5,43 5,43 6,41 5,38 5,33 5,27 5,20 6,11 5,3 5,-6 5,-14 6,-22 5,-30 5,-35 5,-39 6,-42 5,-43 5,-43 5,-40 6,-36 5,-30 5,-24 5,-16 5,-7 6,1 5,9 5,18 5,26 6,32 5,37 5,41 5,42 6,43 5,42 5,38"
           id="path3705" />
      </g>
      <path
         style="color:#ff0000;fill:none;stroke:#ff1616;stroke-width:16.98369789;stroke-miterlimit:4;stroke-opacity:1"
         sodipodi:nodetypes="cccccccccccccccccccccccccccccccccccccccccccccccccccccccccccccccccccccccccccccccc"
         d="m 162,162 5,-39 5,-35 5,-30 6,-22 5,-14 5,-6 5,3 6,11 5,20 5,27 5,33 5,38 6,41 5,43 5,43 5,41 6,38 5,32 5,26 5,19 6,11 5,2 5,-7 5,-15 5,-23 6,-30 5,-35 5,-40 5,-42 6,-44 5,-42 5,-40 5,-35 6,-30 5,-23 5,-15 5,-7 5,2 6,11 5,19 5,26 5,32 6,38 5,41 5,43 5,43 6,41 5,38 5,33 5,27 5,20 6,11 5,3 5,-6 5,-14 6,-22 5,-30 5,-35 5,-39 6,-42 5,-43 5,-43 5,-40 6,-36 5,-30 5,-24 5,-16 5,-7 6,1 5,9 5,18 5,26 6,32 5,37 5,41 5,42 6,43 5,42 5,38"
         id="path3707"
         transform="matrix(0.195126,0,0,0.09297109,73.801096,307.5151)" />
      <g
         transform="matrix(0.195126,0,0,0.09297109,455.45126,307.5151)"
         id="g3709"
         style="color:#ff0000;fill:none;stroke:#ff1616;stroke-width:16.98369789;stroke-miterlimit:4;stroke-opacity:1">
        <path
           style="fill:none"
           id="path3711"
           d="m 57,114 5,38 5,42 6,43 5,42 5,41 5,37 6,32 5,26 5,18 5,9 6,1 5,-7 5,-16 5,-24 5,-30 6,-36 5,-40 5,-43 5,-43 6,-42 5,-39 5,-35 5,-30 6,-22 5,-14 5,-6 5,3 6,11 5,20 5,27 5,33 5,38 6,41 5,43 5,43 5,41 6,38 5,32 5,26 5,19 6,11 5,2 5,-7 5,-15 5,-23 6,-30 5,-35 5,-40 5,-42 6,-44 5,-42 5,-40 5,-35 6,-30 5,-23 5,-15 5,-7 5,2 6,11 5,19 5,26 5,32 6,38 5,41 5,43 5,43 6,41 5,38 5,33 5,27 5,20 6,11 5,3 5,-6 5,-14 6,-22 5,-30 5,-35 5,-39 6,-42 5,-43 5,-43 5,-40 6,-36 5,-30 5,-24 5,-16 5,-7 6,1 5,9 5,18 5,26 6,32 5,37 5,41 5,42 6,43 5,42 5,38" />
      </g>
      <g
         style="color:#ff0000;fill:none;stroke:#ff1616;stroke-width:16.98369789;stroke-miterlimit:4;stroke-opacity:1"
         id="g3713"
         transform="matrix(0.195126,0,0,0.09297109,360.874,307.5151)">
        <path
           style="fill:none"
           d="m 53.354297,114 5,38 5,42 6,43 5,42 5,41 5,37 6,32 5,26 5.000003,18 5,9 6,1 5,-7 5,-16 5,-24 5,-30 6,-36 5,-40 5,-43 5,-43 6,-42 5,-39 5,-35 5,-30 6,-22 5,-14 5,-6 5,3 6,11 5,20 5,27 5,33 5,38 6,41 5,43 5,43 5,41 6,38 5,32 5,26 5,19 6,11 5,2 5,-7 5,-15 5,-23 6,-30 5,-35 5,-40 5,-42 6,-44 5,-42 5,-40 5,-35 6,-30 5,-23 5,-15 5,-7 5,2 6,11 5,19 5,26 5,32 6,38 5,41 5,43 5,43 6,41 5,38 5,33 5,27 5,20 6,11 5,3 5,-6 5,-14 6,-22 5,-30 5,-35 5,-39 6,-42 5,-43 5,-43 5,-40 6,-36 5,-30 5,-24 5,-16 5,-7 6,1 5,9 5,18 5,26 6,32 5,37 5,41 5,42 6,43 5,42 5,38"
           id="path3715" />
      </g>
      <g
         transform="matrix(0.195126,0,0,0.09297109,264.874,307.5151)"
         id="g3717"
         style="color:#ff0000;fill:none;stroke:#ff1616;stroke-width:16.98369789;stroke-miterlimit:4;stroke-opacity:1">
        <path
           style="fill:none"
           id="path3719"
           d="m 57,114 5,38 5,42 6,43 5,42 5,41 5,37 6,32 5,26 5,18 5,9 6,1 5,-7 5,-16 5,-24 5,-30 6,-36 5,-40 5,-43 5,-43 6,-42 5,-39 5,-35 5,-30 6,-22 5,-14 5,-6 5,3 6,11 5,20 5,27 5,33 5,38 6,41 5,43 5,43 5,41 6,38 5,32 5,26 5,19 6,11 5,2 5,-7 5,-15 5,-23 6,-30 5,-35 5,-40 5,-42 6,-44 5,-42 5,-40 5,-35 6,-30 5,-23 5,-15 5,-7 5,2 6,11 5,19 5,26 5,32 6,38 5,41 5,43 5,43 6,41 5,38 5,33 5,27 5,20 6,11 5,3 5,-6 5,-14 6,-22 5,-30 5,-35 5,-39 6,-42 5,-43 5,-43 5,-40 6,-36 5,-30 5,-24 5,-16 5,-7 6,1 5,9 5,18 5,26 6,32 5,37 5,41 5,42 6,43 5,42 5,38" />
      </g>
      <g
         style="color:#ff0000;fill:none;stroke:#ff1616;stroke-width:16.98369789;stroke-miterlimit:4;stroke-opacity:1"
         id="g3721"
         transform="matrix(0.195126,0,0,0.09297109,169.37239,307.5151)">
        <path
           style="fill:none"
           d="m 57,114 5,38 5,42 6,43 5,42 5,41 5,37 6,32 5,26 5,18 5,9 6,1 5,-7 5,-16 5,-24 5,-30 6,-36 5,-40 5,-43 5,-43 6,-42 5,-39 5,-35 5,-30 6,-22 5,-14 5,-6 5,3 6,11 5,20 5,27 5,33 5,38 6,41 5,43 5,43 5,41 6,38 5,32 5,26 5,19 6,11 5,2 5,-7 5,-15 5,-23 6,-30 5,-35 5,-40 5,-42 6,-44 5,-42 5,-40 5,-35 6,-30 5,-23 5,-15 5,-7 5,2 6,11 5,19 5,26 5,32 6,38 5,41 5,43 5,43 6,41 5,38 5,33 5,27 5,20 6,11 5,3 5,-6 5,-14 6,-22 5,-30 5,-35 5,-39 6,-42 5,-43 5,-43 5,-40 6,-36 5,-30 5,-24 5,-16 5,-7 6,1 5,9 5,18 5,26 6,32 5,37 5,41 5,42 6,43 5,42 5,38"
           id="path3723" />
      </g>
    </g>
  </g>
</svg>
